STARTFONT 2.1
FONT -FontForge-Alkhemikal-Medium-R-Normal--16-160-72-72-P-68-ISO10646-1
SIZE 16 72 72
FONTBOUNDINGBOX 12 13 -1 -3
COMMENT "Generated by fontforge, http://fontforge.sourceforge.net"
COMMENT "jeti"
STARTPROPERTIES 39
FOUNDRY "FontForge"
FAMILY_NAME "Alkhemikal"
WEIGHT_NAME "Medium"
SLANT "R"
SETWIDTH_NAME "Normal"
ADD_STYLE_NAME ""
PIXEL_SIZE 16
POINT_SIZE 160
RESOLUTION_X 72
RESOLUTION_Y 72
SPACING "P"
AVERAGE_WIDTH 68
CHARSET_REGISTRY "ISO10646"
CHARSET_ENCODING "1"
FONTNAME_REGISTRY ""
CHARSET_COLLECTIONS "ISO10646-1"
FONT_NAME "Alkhemikal"
FACE_NAME "Alkhemikal"
COPYRIGHT "jeti"
FONT_VERSION "001.000"
FONT_ASCENT 12
FONT_DESCENT 4
UNDERLINE_POSITION -2
UNDERLINE_THICKNESS 1
X_HEIGHT 5
CAP_HEIGHT 9
RAW_ASCENT 750
RAW_DESCENT 250
NORM_SPACE 5
RELATIVE_WEIGHT 50
RELATIVE_SETWIDTH 50
SUPERSCRIPT_X 0
SUPERSCRIPT_Y 7
SUPERSCRIPT_SIZE 11
SUBSCRIPT_X 0
SUBSCRIPT_Y 2
SUBSCRIPT_SIZE 11
AVG_LOWERCASE_WIDTH 65
AVG_UPPERCASE_WIDTH 82
ENDPROPERTIES
CHARS 95
STARTCHAR space
ENCODING 32
SWIDTH 312 0
DWIDTH 5 0
BBX 1 1 0 0
BITMAP
00
ENDCHAR
STARTCHAR exclam
ENCODING 33
SWIDTH 187 0
DWIDTH 3 0
BBX 2 11 0 -1
BITMAP
40
C0
C0
C0
C0
C0
C0
80
40
C0
80
ENDCHAR
STARTCHAR quotedbl
ENCODING 34
SWIDTH 375 0
DWIDTH 6 0
BBX 5 3 0 7
BITMAP
D8
D8
D8
ENDCHAR
STARTCHAR numbersign
ENCODING 35
SWIDTH 500 0
DWIDTH 8 0
BBX 7 8 0 1
BITMAP
24
6C
7E
EC
6C
7E
FC
48
ENDCHAR
STARTCHAR dollar
ENCODING 36
SWIDTH 437 0
DWIDTH 7 0
BBX 6 11 0 -1
BITMAP
10
38
4C
C0
70
38
0C
8C
CC
78
20
ENDCHAR
STARTCHAR percent
ENCODING 37
SWIDTH 562 0
DWIDTH 9 0
BBX 8 10 0 0
BITMAP
63
D6
DE
7C
0C
1E
3B
3B
6E
C0
ENDCHAR
STARTCHAR ampersand
ENCODING 38
SWIDTH 562 0
DWIDTH 9 0
BBX 8 10 0 0
BITMAP
38
6C
68
70
3B
7E
CC
CC
DE
73
ENDCHAR
STARTCHAR quotesingle
ENCODING 39
SWIDTH 187 0
DWIDTH 3 0
BBX 2 3 0 7
BITMAP
C0
C0
C0
ENDCHAR
STARTCHAR parenleft
ENCODING 40
SWIDTH 312 0
DWIDTH 5 0
BBX 4 13 0 -3
BITMAP
10
20
60
40
C0
C0
C0
C0
C0
C0
40
60
30
ENDCHAR
STARTCHAR parenright
ENCODING 41
SWIDTH 312 0
DWIDTH 5 0
BBX 4 13 0 -3
BITMAP
C0
60
20
30
30
30
30
30
30
20
60
40
80
ENDCHAR
STARTCHAR asterisk
ENCODING 42
SWIDTH 500 0
DWIDTH 8 0
BBX 7 7 0 2
BITMAP
30
36
DE
F8
3C
6C
60
ENDCHAR
STARTCHAR plus
ENCODING 43
SWIDTH 437 0
DWIDTH 7 0
BBX 6 6 0 1
BITMAP
10
30
7C
F8
30
20
ENDCHAR
STARTCHAR comma
ENCODING 44
SWIDTH 187 0
DWIDTH 3 0
BBX 2 3 0 -1
BITMAP
C0
C0
80
ENDCHAR
STARTCHAR hyphen
ENCODING 45
SWIDTH 375 0
DWIDTH 6 0
BBX 5 2 0 3
BITMAP
78
F0
ENDCHAR
STARTCHAR period
ENCODING 46
SWIDTH 187 0
DWIDTH 3 0
BBX 2 2 0 0
BITMAP
C0
C0
ENDCHAR
STARTCHAR slash
ENCODING 47
SWIDTH 312 0
DWIDTH 5 0
BBX 4 12 0 -2
BITMAP
30
30
30
30
60
60
60
60
C0
C0
C0
C0
ENDCHAR
STARTCHAR zero
ENCODING 48
SWIDTH 500 0
DWIDTH 8 0
BBX 7 10 0 -1
BITMAP
18
2C
66
CE
DE
F6
E6
CC
68
30
ENDCHAR
STARTCHAR one
ENCODING 49
SWIDTH 312 0
DWIDTH 5 0
BBX 4 11 0 -1
BITMAP
20
E0
60
60
60
60
60
60
60
70
C0
ENDCHAR
STARTCHAR two
ENCODING 50
SWIDTH 500 0
DWIDTH 8 0
BBX 7 10 0 0
BITMAP
78
DC
8C
0C
18
18
30
62
FE
DC
ENDCHAR
STARTCHAR three
ENCODING 51
SWIDTH 437 0
DWIDTH 7 0
BBX 6 10 0 0
BITMAP
30
58
18
10
38
0C
4C
CC
C8
70
ENDCHAR
STARTCHAR four
ENCODING 52
SWIDTH 500 0
DWIDTH 8 0
BBX 7 11 0 -1
BITMAP
04
0C
2C
6C
6C
CC
CE
FC
CC
0C
08
ENDCHAR
STARTCHAR five
ENCODING 53
SWIDTH 437 0
DWIDTH 7 0
BBX 6 10 0 0
BITMAP
04
7C
78
C0
F8
0C
4C
CC
C8
70
ENDCHAR
STARTCHAR six
ENCODING 54
SWIDTH 437 0
DWIDTH 7 0
BBX 6 10 0 0
BITMAP
30
60
C0
C0
F8
CC
CC
CC
C8
70
ENDCHAR
STARTCHAR seven
ENCODING 55
SWIDTH 500 0
DWIDTH 8 0
BBX 7 11 0 -1
BITMAP
86
FC
7C
18
18
30
30
30
30
30
20
ENDCHAR
STARTCHAR eight
ENCODING 56
SWIDTH 437 0
DWIDTH 7 0
BBX 6 10 0 0
BITMAP
38
4C
C8
70
38
4C
CC
CC
C8
70
ENDCHAR
STARTCHAR nine
ENCODING 57
SWIDTH 437 0
DWIDTH 7 0
BBX 6 10 0 0
BITMAP
38
4C
CC
CC
CC
7C
0C
08
18
30
ENDCHAR
STARTCHAR colon
ENCODING 58
SWIDTH 187 0
DWIDTH 3 0
BBX 2 6 0 0
BITMAP
C0
C0
00
00
C0
C0
ENDCHAR
STARTCHAR semicolon
ENCODING 59
SWIDTH 187 0
DWIDTH 3 0
BBX 2 7 0 -1
BITMAP
C0
C0
00
00
C0
C0
80
ENDCHAR
STARTCHAR less
ENCODING 60
SWIDTH 500 0
DWIDTH 8 0
BBX 7 6 0 1
BITMAP
0E
3C
E0
70
18
04
ENDCHAR
STARTCHAR equal
ENCODING 61
SWIDTH 437 0
DWIDTH 7 0
BBX 6 5 0 1
BITMAP
7C
F8
00
7C
F8
ENDCHAR
STARTCHAR greater
ENCODING 62
SWIDTH 500 0
DWIDTH 8 0
BBX 7 6 0 1
BITMAP
60
38
0E
3C
70
C0
ENDCHAR
STARTCHAR question
ENCODING 63
SWIDTH 437 0
DWIDTH 7 0
BBX 6 11 0 -1
BITMAP
38
4C
CC
CC
58
10
30
20
10
30
20
ENDCHAR
STARTCHAR at
ENCODING 64
SWIDTH 562 0
DWIDTH 9 0
BBX 8 10 0 -1
BITMAP
1C
36
63
CD
DD
D7
D6
DC
60
38
ENDCHAR
STARTCHAR A
ENCODING 65
SWIDTH 500 0
DWIDTH 8 0
BBX 7 11 0 -1
BITMAP
0E
3E
16
36
3E
7E
66
66
66
C6
04
ENDCHAR
STARTCHAR B
ENCODING 66
SWIDTH 500 0
DWIDTH 8 0
BBX 7 10 0 0
BITMAP
58
FC
6C
68
7C
76
66
66
64
78
ENDCHAR
STARTCHAR C
ENCODING 67
SWIDTH 500 0
DWIDTH 8 0
BBX 7 10 0 0
BITMAP
1C
24
60
C0
C0
C0
C2
C6
64
38
ENDCHAR
STARTCHAR D
ENCODING 68
SWIDTH 500 0
DWIDTH 8 0
BBX 7 10 0 0
BITMAP
58
EC
66
66
66
66
66
66
64
78
ENDCHAR
STARTCHAR E
ENCODING 69
SWIDTH 500 0
DWIDTH 8 0
BBX 7 10 0 0
BITMAP
18
FC
74
60
78
F0
60
62
76
5C
ENDCHAR
STARTCHAR F
ENCODING 70
SWIDTH 437 0
DWIDTH 7 0
BBX 6 11 0 -1
BITMAP
18
FC
74
60
78
F0
60
60
60
60
40
ENDCHAR
STARTCHAR G
ENCODING 71
SWIDTH 500 0
DWIDTH 8 0
BBX 7 13 0 -3
BITMAP
1C
24
60
C0
C0
C6
DE
C6
66
3E
06
66
3C
ENDCHAR
STARTCHAR H
ENCODING 72
SWIDTH 500 0
DWIDTH 8 0
BBX 7 12 0 -2
BITMAP
22
E6
66
66
7E
7E
66
66
66
46
04
08
ENDCHAR
STARTCHAR I
ENCODING 73
SWIDTH 250 0
DWIDTH 4 0
BBX 3 11 0 -1
BITMAP
20
E0
60
60
60
60
60
60
60
60
40
ENDCHAR
STARTCHAR J
ENCODING 74
SWIDTH 437 0
DWIDTH 7 0
BBX 6 13 0 -3
BITMAP
04
8C
7C
3C
0C
0C
0C
0C
CC
CC
8C
CC
78
ENDCHAR
STARTCHAR K
ENCODING 75
SWIDTH 562 0
DWIDTH 9 0
BBX 8 11 0 -1
BITMAP
22
E6
6C
78
6C
66
66
66
66
46
03
ENDCHAR
STARTCHAR L
ENCODING 76
SWIDTH 500 0
DWIDTH 8 0
BBX 7 10 0 0
BITMAP
20
E0
60
60
60
60
60
62
76
5C
ENDCHAR
STARTCHAR M
ENCODING 77
SWIDTH 750 0
DWIDTH 12 0
BBX 11 12 0 -2
BITMAP
2660
EEE0
7FE0
7760
6660
6660
6660
6660
6660
4460
0040
0080
ENDCHAR
STARTCHAR N
ENCODING 78
SWIDTH 500 0
DWIDTH 8 0
BBX 7 12 0 -2
BITMAP
26
EE
7E
76
66
66
66
66
66
46
04
08
ENDCHAR
STARTCHAR O
ENCODING 79
SWIDTH 562 0
DWIDTH 9 0
BBX 8 10 0 0
BITMAP
1C
26
63
C3
C3
C3
C3
C6
64
38
ENDCHAR
STARTCHAR P
ENCODING 80
SWIDTH 500 0
DWIDTH 8 0
BBX 7 11 0 -1
BITMAP
2C
F6
66
66
66
78
60
60
60
60
40
ENDCHAR
STARTCHAR Q
ENCODING 81
SWIDTH 562 0
DWIDTH 9 0
BBX 8 12 0 -2
BITMAP
1C
26
63
C3
C3
C3
DB
CE
6C
3C
07
06
ENDCHAR
STARTCHAR R
ENCODING 82
SWIDTH 562 0
DWIDTH 9 0
BBX 8 10 0 0
BITMAP
2C
F6
66
66
6C
78
6C
6D
6F
46
ENDCHAR
STARTCHAR S
ENCODING 83
SWIDTH 500 0
DWIDTH 8 0
BBX 7 10 0 0
BITMAP
38
4C
C0
70
3C
66
F6
A6
CC
78
ENDCHAR
STARTCHAR T
ENCODING 84
SWIDTH 562 0
DWIDTH 9 0
BBX 8 10 0 0
BITMAP
7F
FE
30
60
60
60
61
63
32
1C
ENDCHAR
STARTCHAR U
ENCODING 85
SWIDTH 562 0
DWIDTH 9 0
BBX 8 10 0 0
BITMAP
22
E6
66
66
66
66
66
66
66
3B
ENDCHAR
STARTCHAR V
ENCODING 86
SWIDTH 500 0
DWIDTH 8 0
BBX 7 10 0 0
BITMAP
22
E6
66
66
66
66
66
66
2C
18
ENDCHAR
STARTCHAR W
ENCODING 87
SWIDTH 625 0
DWIDTH 10 0
BBX 9 10 0 0
BITMAP
2480
ED80
6D80
6D80
6D80
6D80
6D80
6D80
6D00
3600
ENDCHAR
STARTCHAR X
ENCODING 88
SWIDTH 500 0
DWIDTH 8 0
BBX 7 10 0 0
BITMAP
46
E6
6C
38
38
38
38
6C
CE
C6
ENDCHAR
STARTCHAR Y
ENCODING 89
SWIDTH 500 0
DWIDTH 8 0
BBX 7 13 0 -3
BITMAP
22
E6
66
66
66
66
66
66
66
1E
06
66
3C
ENDCHAR
STARTCHAR Z
ENCODING 90
SWIDTH 500 0
DWIDTH 8 0
BBX 7 10 0 0
BITMAP
86
FC
7C
18
18
30
30
62
FE
DC
ENDCHAR
STARTCHAR bracketleft
ENCODING 91
SWIDTH 250 0
DWIDTH 4 0
BBX 3 13 0 -3
BITMAP
E0
C0
C0
C0
C0
C0
C0
C0
C0
C0
C0
C0
E0
ENDCHAR
STARTCHAR backslash
ENCODING 92
SWIDTH 312 0
DWIDTH 5 0
BBX 4 12 0 -2
BITMAP
C0
C0
C0
C0
60
60
60
60
30
30
30
30
ENDCHAR
STARTCHAR bracketright
ENCODING 93
SWIDTH 250 0
DWIDTH 4 0
BBX 3 13 0 -3
BITMAP
E0
60
60
60
60
60
60
60
60
60
60
60
E0
ENDCHAR
STARTCHAR asciicircum
ENCODING 94
SWIDTH 375 0
DWIDTH 6 0
BBX 5 3 0 7
BITMAP
30
70
C8
ENDCHAR
STARTCHAR underscore
ENCODING 95
SWIDTH 500 0
DWIDTH 8 0
BBX 7 2 0 -2
BITMAP
7E
FC
ENDCHAR
STARTCHAR grave
ENCODING 96
SWIDTH 250 0
DWIDTH 4 0
BBX 3 4 0 6
BITMAP
C0
C0
60
20
ENDCHAR
STARTCHAR a
ENCODING 97
SWIDTH 500 0
DWIDTH 8 0
BBX 7 6 0 0
BITMAP
3C
6C
CC
CC
CC
76
ENDCHAR
STARTCHAR b
ENCODING 98
SWIDTH 437 0
DWIDTH 7 0
BBX 7 10 -1 0
BITMAP
20
E0
60
60
6C
76
66
66
64
78
ENDCHAR
STARTCHAR c
ENCODING 99
SWIDTH 375 0
DWIDTH 6 0
BBX 5 6 0 0
BITMAP
38
48
C0
C0
C8
70
ENDCHAR
STARTCHAR d
ENCODING 100
SWIDTH 500 0
DWIDTH 8 0
BBX 7 10 0 0
BITMAP
04
1C
0C
0C
3C
6C
CC
CC
CC
36
ENDCHAR
STARTCHAR e
ENCODING 101
SWIDTH 375 0
DWIDTH 6 0
BBX 5 6 0 0
BITMAP
38
58
D0
E0
C8
70
ENDCHAR
STARTCHAR f
ENCODING 102
SWIDTH 312 0
DWIDTH 5 0
BBX 4 13 0 -3
BITMAP
30
60
60
60
F0
60
60
60
60
60
60
60
C0
ENDCHAR
STARTCHAR g
ENCODING 103
SWIDTH 437 0
DWIDTH 7 0
BBX 6 9 0 -3
BITMAP
3C
6C
CC
CC
CC
3C
0C
CC
78
ENDCHAR
STARTCHAR h
ENCODING 104
SWIDTH 437 0
DWIDTH 7 0
BBX 6 11 0 -1
BITMAP
40
C0
C0
C0
D8
EC
CC
CC
CC
C8
10
ENDCHAR
STARTCHAR i
ENCODING 105
SWIDTH 250 0
DWIDTH 4 0
BBX 3 9 0 0
BITMAP
40
C0
80
40
C0
C0
C0
C0
60
ENDCHAR
STARTCHAR j
ENCODING 106
SWIDTH 187 0
DWIDTH 3 0
BBX 3 12 -1 -3
BITMAP
20
60
40
20
60
60
60
60
60
60
60
C0
ENDCHAR
STARTCHAR k
ENCODING 107
SWIDTH 437 0
DWIDTH 7 0
BBX 7 10 -1 0
BITMAP
20
E0
60
64
6C
78
6C
6C
6C
46
ENDCHAR
STARTCHAR l
ENCODING 108
SWIDTH 250 0
DWIDTH 4 0
BBX 4 10 -1 0
BITMAP
20
E0
60
60
60
60
60
60
60
30
ENDCHAR
STARTCHAR m
ENCODING 109
SWIDTH 562 0
DWIDTH 9 0
BBX 8 6 0 0
BITMAP
B6
DB
DB
DB
DB
92
ENDCHAR
STARTCHAR n
ENCODING 110
SWIDTH 437 0
DWIDTH 7 0
BBX 6 7 0 -1
BITMAP
58
EC
CC
CC
CC
88
10
ENDCHAR
STARTCHAR o
ENCODING 111
SWIDTH 437 0
DWIDTH 7 0
BBX 6 6 0 0
BITMAP
38
4C
CC
CC
C8
70
ENDCHAR
STARTCHAR p
ENCODING 112
SWIDTH 437 0
DWIDTH 7 0
BBX 6 9 0 -3
BITMAP
58
EC
CC
CC
CC
F0
C0
C0
80
ENDCHAR
STARTCHAR q
ENCODING 113
SWIDTH 437 0
DWIDTH 7 0
BBX 6 9 0 -3
BITMAP
3C
6C
CC
CC
CC
3C
0C
0C
08
ENDCHAR
STARTCHAR r
ENCODING 114
SWIDTH 375 0
DWIDTH 6 0
BBX 5 6 0 0
BITMAP
58
F8
C0
C0
C0
80
ENDCHAR
STARTCHAR s
ENCODING 115
SWIDTH 375 0
DWIDTH 6 0
BBX 5 6 0 0
BITMAP
70
D0
60
38
98
70
ENDCHAR
STARTCHAR t
ENCODING 116
SWIDTH 312 0
DWIDTH 5 0
BBX 4 10 0 0
BITMAP
20
60
60
60
F0
60
60
60
60
30
ENDCHAR
STARTCHAR u
ENCODING 117
SWIDTH 500 0
DWIDTH 8 0
BBX 7 6 0 0
BITMAP
44
CC
CC
CC
CC
76
ENDCHAR
STARTCHAR v
ENCODING 118
SWIDTH 375 0
DWIDTH 6 0
BBX 5 6 0 0
BITMAP
48
D8
D8
D8
D0
60
ENDCHAR
STARTCHAR w
ENCODING 119
SWIDTH 562 0
DWIDTH 9 0
BBX 8 6 0 0
BITMAP
49
DB
DB
DB
DA
6C
ENDCHAR
STARTCHAR x
ENCODING 120
SWIDTH 375 0
DWIDTH 6 0
BBX 5 6 0 0
BITMAP
C8
68
70
30
78
D8
ENDCHAR
STARTCHAR y
ENCODING 121
SWIDTH 437 0
DWIDTH 7 0
BBX 6 9 0 -3
BITMAP
44
CC
CC
CC
CC
7C
0C
CC
78
ENDCHAR
STARTCHAR z
ENCODING 122
SWIDTH 437 0
DWIDTH 7 0
BBX 6 6 0 0
BITMAP
78
98
30
30
64
F8
ENDCHAR
STARTCHAR braceleft
ENCODING 123
SWIDTH 437 0
DWIDTH 7 0
BBX 6 13 0 -3
BITMAP
04
08
18
10
30
30
E0
30
30
30
10
18
0C
ENDCHAR
STARTCHAR bar
ENCODING 124
SWIDTH 187 0
DWIDTH 3 0
BBX 2 13 0 -3
BITMAP
40
C0
C0
C0
C0
C0
C0
C0
C0
C0
C0
C0
80
ENDCHAR
STARTCHAR braceright
ENCODING 125
SWIDTH 437 0
DWIDTH 7 0
BBX 6 13 0 -3
BITMAP
C0
60
20
30
30
30
1C
30
30
20
60
40
80
ENDCHAR
STARTCHAR asciitilde
ENCODING 126
SWIDTH 562 0
DWIDTH 9 0
BBX 8 3 0 3
BITMAP
33
7E
CC
ENDCHAR
ENDFONT
